<?xml version="1.0" encoding="UTF-8" standalone="no"?>
<!-- Created with Inkscape (http://www.inkscape.org/) -->

<svg
   width="344.65051mm"
   height="144.8591mm"
   viewBox="0 0 344.65051 144.8591"
   version="1.1"
   id="svg5"
   xml:space="preserve"
   xmlns="http://www.w3.org/2000/svg"
   xmlns:svg="http://www.w3.org/2000/svg"><defs
     id="defs2"><linearGradient
       id="paint0_linear_422_9380"
       x1="18.6663"
       y1="9.33323"
       x2="37.332802"
       y2="27.9998"
       gradientUnits="userSpaceOnUse"
       gradientTransform="matrix(2.5867674,0,0,2.5867674,20.696518,78.043)"><stop
         stop-color="#3DDCB6"
         stop-opacity="0"
         id="stop1438" /><stop
         offset="1"
         stop-color="#3DDCB6"
         id="stop1440" /></linearGradient><linearGradient
       id="paint1_linear_422_9380"
       x1="37.332699"
       y1="46.666801"
       x2="18.666201"
       y2="28.0002"
       gradientUnits="userSpaceOnUse"
       gradientTransform="matrix(2.5867674,0,0,2.5867674,20.696518,78.043)"><stop
         stop-color="#3DDCB6"
         stop-opacity="0"
         id="stop1443" /><stop
         offset="1"
         stop-color="#3DDCB6"
         id="stop1445" /></linearGradient></defs><g
     id="layer1"
     transform="translate(-20.696568,-78.042936)"><g
       id="g2469"><path
         id="path1412"
         style="stroke-width:2.58676;fill:#162632;fill-opacity:1"
         d="M 186.83578 149.23911 L 186.83578 187.27916 L 193.50101 187.27916 L 193.50101 183.20086 C 193.97128 183.82853 194.5116 184.41155 195.12313 184.94907 C 196.2634 185.95197 197.61067 186.73825 199.16371 187.30862 C 200.71704 187.87861 202.45718 188.16438 204.38406 188.16438 C 206.52722 188.16438 208.49316 187.78114 210.28241 187.01406 C 212.09131 186.24756 213.65463 185.16582 214.97205 183.76982 C 216.28956 182.3737 217.31167 180.72203 218.03904 178.81508 C 218.76643 176.88827 219.13045 174.79446 219.13045 172.53329 C 219.13045 169.62326 218.50166 166.9888 217.24271 164.62938 C 215.98425 162.2503 214.23484 160.3725 211.99342 158.99613 C 209.75171 157.60003 207.17558 156.90221 204.26572 156.90221 C 201.72945 156.90221 199.49794 157.43261 197.57104 158.49436 C 196.38561 159.14159 195.31388 159.94557 194.35625 160.90506 L 194.35625 149.23962 L 186.83578 149.23911 z M 286.44572 149.25823 L 286.44572 187.28381 L 294.00702 187.28381 L 294.00702 177.85855 L 294.52947 177.33868 L 304.49062 187.28381 L 313.97117 187.28381 L 299.26561 172.60409 L 314.0337 157.84065 L 304.56606 157.84065 L 294.0065 168.41313 L 294.0065 149.25823 L 286.44572 149.25823 z M 233.53784 156.60662 C 231.61103 156.60662 229.61558 156.87155 227.55113 157.40243 C 226.26363 157.73386 224.80972 158.28136 223.4351 158.99252 L 228.00588 163.5633 C 228.23661 163.4753 228.46944 163.40212 228.70506 163.33075 C 230.2188 162.85853 231.74268 162.62279 233.27636 162.62279 C 234.9474 162.62279 236.314 162.87782 237.37585 163.38915 C 238.43751 163.88092 239.22398 164.58905 239.73539 165.51305 C 240.26627 166.4174 240.53121 167.48903 240.53121 168.72784 L 240.53121 169.36243 C 237.47881 169.11605 234.79493 169.12076 232.47951 169.37225 C 229.82521 169.6675 227.64274 170.24704 225.9321 171.11219 C 224.22146 171.95788 222.95362 173.0295 222.12768 174.32698 C 221.30155 175.62484 220.889 177.09931 220.889 178.751 C 220.889 180.67761 221.33184 182.34887 222.21605 183.76465 C 223.10085 185.16067 224.31985 186.24221 225.87319 187.00889 L 225.87371 187.01355 C 227.42714 187.78102 229.20639 188.16386 231.21188 188.16386 C 233.3747 188.16386 235.32122 187.80014 237.05132 187.07246 C 238.78151 186.32551 240.13841 185.27381 241.12136 183.91709 L 241.12136 187.27916 L 247.78658 187.27916 L 247.78658 168.63999 C 247.78658 165.9069 247.23625 163.65528 246.135 161.88588 C 245.05349 160.09664 242.70065 158.76968 240.67539 157.90473 C 238.66989 157.03948 236.29048 156.60662 233.53784 156.60662 z M 269.40387 156.90169 C 267.67358 156.90169 266.0121 157.2558 264.41968 157.96364 C 262.84669 158.65173 261.47029 159.77258 260.29073 161.32571 L 260.29073 157.78639 L 252.74029 157.78639 L 252.73977 187.27916 L 260.29021 187.27916 L 260.29021 170.96956 C 260.29021 169.5538 260.58537 168.30556 261.17491 167.22406 C 261.76474 166.14275 262.58082 165.30677 263.62283 164.71723 C 264.68468 164.10814 265.89379 163.80308 267.25051 163.80308 C 269.33462 163.80308 270.95697 164.39291 272.11688 165.57248 C 273.27729 166.75234 273.85683 168.34497 273.85683 170.35048 L 273.85683 187.27916 L 281.40675 187.27916 L 281.40675 167.99093 C 281.40675 166.14293 280.97497 164.3732 280.11071 162.68221 C 279.24468 160.99123 277.91724 159.60502 276.12801 158.52381 C 274.35861 157.4423 272.11711 156.90169 269.40387 156.90169 z M 202.99759 163.508 C 204.66891 163.508 206.15359 163.87202 207.45106 164.59941 C 208.74893 165.3268 209.77163 166.36889 210.51857 167.72532 C 211.26561 169.08214 211.63892 170.68459 211.63892 172.53278 C 211.63892 174.38077 211.26552 175.98353 210.51857 177.34023 C 209.77124 178.67739 208.73901 179.71919 207.4216 180.46614 C 206.12404 181.19382 204.64916 181.55755 202.99759 181.55755 C 201.32625 181.55755 199.84188 181.19353 198.54411 180.46614 C 197.24664 179.71909 196.22406 178.67739 195.47711 177.34023 C 194.72978 175.98353 194.35625 174.38077 194.35625 172.53278 C 194.35625 170.68459 194.72027 169.08214 195.44766 167.72532 C 196.1947 166.36889 197.2172 165.3268 198.51465 164.59941 C 199.83217 163.87172 201.32625 163.508 202.99759 163.508 z M 236.34284 173.97196 C 237.59853 173.97223 238.99463 174.06427 240.53173 174.25929 L 240.53173 174.2598 L 240.53173 176.18992 C 240.53173 177.46804 240.20686 178.57868 239.55866 179.52253 C 238.90949 180.44644 238.02494 181.16466 236.90404 181.67589 C 235.80317 182.18722 234.55436 182.44225 233.15853 182.44225 C 231.5266 182.44225 230.23885 182.09826 229.2952 181.41027 C 228.35175 180.70243 227.87927 179.69944 227.87927 178.40167 C 227.87927 177.53643 228.16505 176.77957 228.73503 176.13049 C 229.32457 175.48132 230.19948 174.97072 231.35968 174.59725 C 232.53925 174.22377 234.02391 174.01774 235.81315 173.97765 C 235.98679 173.97399 236.16345 173.97193 236.34284 173.97196 z " /><path
         id="path1414"
         clip-path="none"
         style="stroke-width:2.58676;fill-opacity:1;fill:#162632"
         d="M 351.96575 105.11777 L 351.96575 113.65833 L 345.66433 113.65833 L 345.66433 119.79698 L 351.96575 119.79698 L 351.96575 143.16248 L 359.46762 143.16248 L 359.46762 119.79698 L 365.34685 119.79698 L 365.34685 113.65833 L 359.46762 113.65833 L 359.46762 105.11777 L 351.96575 105.11777 z M 234.87419 112.77932 C 232.59337 112.77932 230.48985 113.16256 228.56295 113.92963 C 226.6557 114.69613 224.9841 115.78786 223.54879 117.20334 C 222.13331 118.59945 221.03248 120.25092 220.24614 122.15807 C 219.47965 124.06532 219.09531 126.15966 219.09531 128.44038 C 219.09531 131.54684 219.7641 134.27023 221.10087 136.6099 C 222.45769 138.94967 224.3452 140.77814 226.76358 142.09536 C 229.18195 143.39312 231.99329 144.04201 235.1982 144.04201 C 236.59432 144.04201 238.04928 143.8944 239.56331 143.59914 C 241.09699 143.30388 242.55153 142.88163 243.9279 142.331 C 245.20132 141.82163 246.28124 141.22795 247.1675 140.55023 L 242.8706 136.25334 C 242.07672 136.67081 241.24965 137.01532 240.3891 137.2879 C 238.83596 137.77967 237.21372 138.0248 235.52273 138.0248 C 233.61558 138.0248 231.95402 137.70045 230.53854 137.05225 C 229.14252 136.38352 228.06108 135.46919 227.29429 134.30927 C 226.54735 133.14907 226.18324 131.79237 226.20289 130.23923 L 249.2666 130.23923 C 249.65962 127.74196 249.59129 125.4417 249.06041 123.33785 C 248.54908 121.21443 247.64465 119.36617 246.34688 117.79348 C 245.06896 116.20075 243.45652 114.97193 241.50996 114.10688 C 239.56342 113.22209 237.35153 112.77932 234.87419 112.77932 z M 296.48232 112.77983 C 294.20072 112.77983 292.09776 113.16365 290.17056 113.93015 C 288.26419 114.69694 286.59315 115.78786 285.15743 117.20334 C 283.74244 118.59945 282.64032 120.25143 281.85427 122.15859 C 281.08836 124.06584 280.70292 126.15965 280.70292 128.44038 C 280.70292 131.54683 281.37266 134.27024 282.71003 136.6099 C 284.06548 138.94968 285.95407 140.77813 288.37274 142.09536 C 290.79131 143.39273 293.60292 144.04201 296.8053 144.04201 L 296.80581 144.04253 C 298.20271 144.04253 299.65922 143.89492 301.17247 143.59966 C 302.70634 143.30518 304.15986 142.88143 305.53603 142.331 C 306.81131 141.82163 307.88945 141.22828 308.77718 140.55075 L 304.4808 136.25385 C 303.68664 136.67112 302.85857 137.01513 301.99723 137.2879 C 300.44517 137.77967 298.82366 138.02532 297.13189 138.02532 C 295.22542 138.02532 293.56207 137.70143 292.14718 137.05225 C 290.75027 136.38391 289.66897 135.46969 288.90345 134.30979 C 288.15592 133.14958 287.79203 131.79288 287.81153 130.23975 L 310.87524 130.23975 C 311.26827 127.74247 311.19792 125.4417 310.66802 123.33785 C 310.15846 121.21444 309.25313 119.36617 307.95449 117.79348 C 306.67667 116.20075 305.06487 114.97212 303.11706 114.10688 C 301.17187 113.22248 298.96043 112.77983 296.48232 112.77983 z M 203.49936 112.78035 C 201.76908 112.78035 200.10739 113.13447 198.51465 113.8423 C 196.94168 114.53039 195.56547 115.65095 194.38571 117.20437 L 194.38571 113.66505 L 186.83578 113.66505 L 186.83578 143.15782 L 194.38622 143.15731 L 194.38622 126.84823 C 194.38622 125.43255 194.68041 124.18342 195.27093 123.1022 C 195.86075 122.0206 196.67664 121.18492 197.71884 120.59538 C 198.7804 119.98629 199.9897 119.68122 201.34652 119.68122 C 203.43043 119.68122 205.05227 120.27158 206.21238 121.45114 C 207.37278 122.631 207.95284 124.22302 207.95284 126.22863 L 207.95284 143.15782 L 215.50277 143.15782 L 215.50277 123.8696 C 215.50277 122.0213 215.07042 120.25185 214.20517 118.56088 C 213.33993 116.86989 212.01284 115.48368 210.2235 114.40247 C 208.4539 113.32096 206.2126 112.78035 203.49936 112.78035 z M 331.67552 112.78035 C 329.94503 112.78035 328.28422 113.13436 326.69081 113.8423 C 325.11802 114.53058 323.74195 115.65094 322.56238 117.20437 L 322.56238 113.66505 L 315.01142 113.66505 L 315.01142 143.15782 L 322.56186 143.15782 L 322.56186 126.84823 C 322.56186 125.43256 322.85703 124.18393 323.44656 123.10272 C 324.0361 122.02111 324.85146 121.18562 325.89396 120.59589 C 326.95708 119.98582 328.16511 119.68174 329.5232 119.68174 C 331.60554 119.68174 333.22757 120.27109 334.38905 121.45114 C 335.54788 122.631 336.13003 124.22353 336.13003 126.22914 L 336.13003 143.15782 L 343.67789 143.15782 L 343.67789 123.8696 C 343.67789 122.02131 343.24572 120.25238 342.38184 118.56139 C 341.51562 116.8704 340.18869 115.48368 338.40121 114.40247 C 336.62927 113.32087 334.38906 112.78035 331.67552 112.78035 z M 249.96164 113.66505 L 260.01891 128.44089 L 249.37202 143.21674 L 258.63243 143.09891 L 264.97365 133.484 L 271.22598 143.15782 L 280.89929 143.15782 L 270.34128 128.26364 L 280.10296 113.66505 L 270.81308 113.66505 L 265.23875 123.13217 L 259.48819 113.66505 L 249.96164 113.66505 z M 234.69694 118.50145 C 236.95801 118.50145 238.71804 119.07139 239.97621 120.21194 C 241.23468 121.33256 241.89285 122.88575 241.9518 124.8716 L 226.64524 124.8716 C 226.86131 122.88575 227.69709 121.33256 229.15206 120.21194 C 230.60714 119.07149 232.45552 118.50145 234.69694 118.50145 z M 296.3061 118.50145 C 298.56687 118.50145 300.32611 119.07149 301.5833 120.21194 C 302.84294 121.33256 303.50071 122.88575 303.55941 124.8716 L 288.25388 124.8716 C 288.47112 122.88575 289.30639 121.33256 290.76019 120.21194 C 292.21654 119.07139 294.06331 118.50145 296.3061 118.50145 z " /></g><g
       id="g2465"><path
         id="path1432"
         clip-path="none"
         style="fill:url(#paint0_linear_422_9380);stroke-width:2.58676"
         d="M 93.125222 78.042936 L 44.838764 126.32888 L 116.06077 151.67875 L 141.41065 126.32888 L 93.125222 78.042936 z " /><path
         id="path1434"
         clip-path="none"
         style="fill:url(#paint1_linear_422_9380);stroke-width:2.58676"
         d="M 70.189154 149.26598 L 44.838764 174.61585 L 93.124705 222.90179 L 141.41065 174.61585 L 70.189154 149.26598 z " /><path
         id="path1436"
         clip-path="none"
         style="stroke-width:2.58676;fill:#3ddcb6;fill-opacity:1"
         d="M 68.98251 116.33104 C 60.244479 116.33099 51.506709 119.66408 44.839797 126.33094 L 20.696568 150.47366 L 44.839797 174.61689 L 68.981993 150.47417 L 93.672992 175.16414 C 106.70432 188.19548 127.83197 188.19548 140.86339 175.16414 L 165.55439 150.47366 L 141.41116 126.33094 L 117.26793 150.47366 L 93.125739 126.33146 C 86.458875 119.6646 77.72054 116.33109 68.98251 116.33104 z " /></g></g></svg>
